<svg xmlns="http://www.w3.org/2000/svg" width="1920" height="1280" viewBox="0 0 1920 1280" role="img" aria-label="Hacienda Chichí Suárez">
  <defs>
    <linearGradient id="ghero" x1="0" y1="0" x2="1" y2="1">
      <stop offset="0" stop-color="#3b4a26"/>
      <stop offset="1" stop-color="#2C3B1A"/>
    </linearGradient>
    <radialGradient id="vhero" cx="0.5" cy="0.42" r="0.75">
      <stop offset="0.55" stop-color="#000000" stop-opacity="0"/>
      <stop offset="1" stop-color="#1c2410" stop-opacity="0.18"/>
    </radialGradient>
  </defs>
  <rect width="1920" height="1280" fill="url(#ghero)"/>
  <g opacity="0.5">
    <g><ellipse cx="347.2" cy="256" rx="31.200000000000003" ry="16.8" fill="#EEC9C2" opacity="0.85" transform="rotate(0 347.2 256)"/><ellipse cx="327.2" cy="290.6410161513775" rx="31.200000000000003" ry="16.8" fill="#EEC9C2" opacity="0.85" transform="rotate(60 327.2 290.6410161513775)"/><ellipse cx="287.2" cy="290.6410161513775" rx="31.200000000000003" ry="16.8" fill="#EEC9C2" opacity="0.85" transform="rotate(120 287.2 290.6410161513775)"/><ellipse cx="267.2" cy="256" rx="31.200000000000003" ry="16.8" fill="#EEC9C2" opacity="0.85" transform="rotate(180 267.2 256)"/><ellipse cx="287.2" cy="221.35898384862247" rx="31.200000000000003" ry="16.8" fill="#EEC9C2" opacity="0.85" transform="rotate(240 287.2 221.35898384862247)"/><ellipse cx="327.2" cy="221.35898384862247" rx="31.200000000000003" ry="16.8" fill="#EEC9C2" opacity="0.85" transform="rotate(300 327.2 221.35898384862247)"/><circle cx="307.2" cy="256" r="20" fill="#F5903A"/></g>
    <g><ellipse cx="1703.2" cy="998.4000000000001" rx="40.56" ry="21.84" fill="#EEC9C2" opacity="0.85" transform="rotate(0 1703.2 998.4000000000001)"/><ellipse cx="1677.2" cy="1043.4333209967908" rx="40.56" ry="21.84" fill="#EEC9C2" opacity="0.85" transform="rotate(60 1677.2 1043.4333209967908)"/><ellipse cx="1625.2" cy="1043.4333209967908" rx="40.56" ry="21.84" fill="#EEC9C2" opacity="0.85" transform="rotate(120 1625.2 1043.4333209967908)"/><ellipse cx="1599.2" cy="998.4000000000001" rx="40.56" ry="21.84" fill="#EEC9C2" opacity="0.85" transform="rotate(180 1599.2 998.4000000000001)"/><ellipse cx="1625.2" cy="953.3666790032092" rx="40.56" ry="21.84" fill="#EEC9C2" opacity="0.85" transform="rotate(240 1625.2 953.3666790032092)"/><ellipse cx="1677.2" cy="953.3666790032092" rx="40.56" ry="21.84" fill="#EEC9C2" opacity="0.85" transform="rotate(300 1677.2 953.3666790032092)"/><circle cx="1651.2" cy="998.4000000000001" r="26" fill="#F5903A"/></g>
    <g transform="translate(153.6 1177.6000000000001) rotate(18) scale(1.6)" fill="#2C3B1A" opacity="0.9">
    <path d="M0 60 C 0 10, 0 -30, 0 -70" stroke="#2C3B1A" stroke-width="3" fill="none"/>
    <path d="M0 -50 C 22 -56, 30 -72, 10 -80 C 4 -68, 4 -56, 0 -50 Z"/><path d="M0 -30 C -22 -36, -30 -52, -10 -60 C -4 -48, -4 -36, 0 -30 Z"/><path d="M0 -10 C 22 -16, 30 -32, 10 -40 C 4 -28, 4 -16, 0 -10 Z"/><path d="M0 10 C -22 4, -30 -12, -10 -20 C -4 -8, -4 4, 0 10 Z"/><path d="M0 30 C 22 24, 30 8, 10 0 C 4 12, 4 24, 0 30 Z"/>
    <circle cx="0" cy="-72" r="9" fill="#2C3B1A"/>
  </g>
    <g transform="translate(1785.6000000000001 204.8) rotate(-22) scale(1.3)" fill="#2C3B1A" opacity="0.9">
    <path d="M0 60 C 0 10, 0 -30, 0 -70" stroke="#2C3B1A" stroke-width="3" fill="none"/>
    <path d="M0 -50 C 22 -56, 30 -72, 10 -80 C 4 -68, 4 -56, 0 -50 Z"/><path d="M0 -30 C -22 -36, -30 -52, -10 -60 C -4 -48, -4 -36, 0 -30 Z"/><path d="M0 -10 C 22 -16, 30 -32, 10 -40 C 4 -28, 4 -16, 0 -10 Z"/><path d="M0 10 C -22 4, -30 -12, -10 -20 C -4 -8, -4 4, 0 10 Z"/><path d="M0 30 C 22 24, 30 8, 10 0 C 4 12, 4 24, 0 30 Z"/>
    <circle cx="0" cy="-72" r="9" fill="#2C3B1A"/>
  </g>
    <g><ellipse cx="1527.6000000000001" cy="230.39999999999998" rx="23.400000000000002" ry="12.6" fill="#EEC9C2" opacity="0.85" transform="rotate(0 1527.6000000000001 230.39999999999998)"/><ellipse cx="1512.6000000000001" cy="256.38076211353314" rx="23.400000000000002" ry="12.6" fill="#EEC9C2" opacity="0.85" transform="rotate(60 1512.6000000000001 256.38076211353314)"/><ellipse cx="1482.6000000000001" cy="256.38076211353314" rx="23.400000000000002" ry="12.6" fill="#EEC9C2" opacity="0.85" transform="rotate(120 1482.6000000000001 256.38076211353314)"/><ellipse cx="1467.6000000000001" cy="230.39999999999998" rx="23.400000000000002" ry="12.6" fill="#EEC9C2" opacity="0.85" transform="rotate(180 1467.6000000000001 230.39999999999998)"/><ellipse cx="1482.6000000000001" cy="204.41923788646682" rx="23.400000000000002" ry="12.6" fill="#EEC9C2" opacity="0.85" transform="rotate(240 1482.6000000000001 204.41923788646682)"/><ellipse cx="1512.6000000000001" cy="204.41923788646682" rx="23.400000000000002" ry="12.6" fill="#EEC9C2" opacity="0.85" transform="rotate(300 1512.6000000000001 204.41923788646682)"/><circle cx="1497.6000000000001" cy="230.39999999999998" r="15" fill="#F5903A"/></g>
  </g>
  <rect width="1920" height="1280" fill="url(#vhero)"/>
  <g text-anchor="middle" font-family="'Cormorant Garamond', Georgia, serif">
    <text x="960" y="634" font-size="96" fill="#F5F0E8" font-style="italic" opacity="0.96">Hacienda Chichí Suárez</text>
    <text x="960" y="684" font-size="35" letter-spacing="6" fill="#F5F0E8" font-family="'Jost', sans-serif" opacity="0.8">PLACEHOLDER · REPLACE IN ADMIN</text>
  </g>
</svg>