<svg xmlns="http://www.w3.org/2000/svg" width="1920" height="1000" viewBox="0 0 1920 1000" role="img" aria-label="Mérida, Yucatán">
  <defs>
    <linearGradient id="gtravel" x1="0" y1="0" x2="1" y2="1">
      <stop offset="0" stop-color="#9fb89f"/>
      <stop offset="1" stop-color="#B8CDB8"/>
    </linearGradient>
    <radialGradient id="vtravel" cx="0.5" cy="0.42" r="0.75">
      <stop offset="0.55" stop-color="#000000" stop-opacity="0"/>
      <stop offset="1" stop-color="#1c2410" stop-opacity="0.18"/>
    </radialGradient>
  </defs>
  <rect width="1920" height="1000" fill="url(#gtravel)"/>
  <g opacity="0.5">
    <g><ellipse cx="347.2" cy="200" rx="31.200000000000003" ry="16.8" fill="#EEC9C2" opacity="0.85" transform="rotate(0 347.2 200)"/><ellipse cx="327.2" cy="234.64101615137753" rx="31.200000000000003" ry="16.8" fill="#EEC9C2" opacity="0.85" transform="rotate(60 327.2 234.64101615137753)"/><ellipse cx="287.2" cy="234.64101615137756" rx="31.200000000000003" ry="16.8" fill="#EEC9C2" opacity="0.85" transform="rotate(120 287.2 234.64101615137756)"/><ellipse cx="267.2" cy="200" rx="31.200000000000003" ry="16.8" fill="#EEC9C2" opacity="0.85" transform="rotate(180 267.2 200)"/><ellipse cx="287.2" cy="165.35898384862247" rx="31.200000000000003" ry="16.8" fill="#EEC9C2" opacity="0.85" transform="rotate(240 287.2 165.35898384862247)"/><ellipse cx="327.2" cy="165.35898384862247" rx="31.200000000000003" ry="16.8" fill="#EEC9C2" opacity="0.85" transform="rotate(300 327.2 165.35898384862247)"/><circle cx="307.2" cy="200" r="20" fill="#F5903A"/></g>
    <g><ellipse cx="1703.2" cy="780" rx="40.56" ry="21.84" fill="#EEC9C2" opacity="0.85" transform="rotate(0 1703.2 780)"/><ellipse cx="1677.2" cy="825.0333209967908" rx="40.56" ry="21.84" fill="#EEC9C2" opacity="0.85" transform="rotate(60 1677.2 825.0333209967908)"/><ellipse cx="1625.2" cy="825.0333209967908" rx="40.56" ry="21.84" fill="#EEC9C2" opacity="0.85" transform="rotate(120 1625.2 825.0333209967908)"/><ellipse cx="1599.2" cy="780" rx="40.56" ry="21.84" fill="#EEC9C2" opacity="0.85" transform="rotate(180 1599.2 780)"/><ellipse cx="1625.2" cy="734.9666790032092" rx="40.56" ry="21.84" fill="#EEC9C2" opacity="0.85" transform="rotate(240 1625.2 734.9666790032092)"/><ellipse cx="1677.2" cy="734.9666790032092" rx="40.56" ry="21.84" fill="#EEC9C2" opacity="0.85" transform="rotate(300 1677.2 734.9666790032092)"/><circle cx="1651.2" cy="780" r="26" fill="#F5903A"/></g>
    <g transform="translate(153.6 920) rotate(18) scale(1.6)" fill="#2C3B1A" opacity="0.9">
    <path d="M0 60 C 0 10, 0 -30, 0 -70" stroke="#2C3B1A" stroke-width="3" fill="none"/>
    <path d="M0 -50 C 22 -56, 30 -72, 10 -80 C 4 -68, 4 -56, 0 -50 Z"/><path d="M0 -30 C -22 -36, -30 -52, -10 -60 C -4 -48, -4 -36, 0 -30 Z"/><path d="M0 -10 C 22 -16, 30 -32, 10 -40 C 4 -28, 4 -16, 0 -10 Z"/><path d="M0 10 C -22 4, -30 -12, -10 -20 C -4 -8, -4 4, 0 10 Z"/><path d="M0 30 C 22 24, 30 8, 10 0 C 4 12, 4 24, 0 30 Z"/>
    <circle cx="0" cy="-72" r="9" fill="#2C3B1A"/>
  </g>
    <g transform="translate(1785.6000000000001 160) rotate(-22) scale(1.3)" fill="#2C3B1A" opacity="0.9">
    <path d="M0 60 C 0 10, 0 -30, 0 -70" stroke="#2C3B1A" stroke-width="3" fill="none"/>
    <path d="M0 -50 C 22 -56, 30 -72, 10 -80 C 4 -68, 4 -56, 0 -50 Z"/><path d="M0 -30 C -22 -36, -30 -52, -10 -60 C -4 -48, -4 -36, 0 -30 Z"/><path d="M0 -10 C 22 -16, 30 -32, 10 -40 C 4 -28, 4 -16, 0 -10 Z"/><path d="M0 10 C -22 4, -30 -12, -10 -20 C -4 -8, -4 4, 0 10 Z"/><path d="M0 30 C 22 24, 30 8, 10 0 C 4 12, 4 24, 0 30 Z"/>
    <circle cx="0" cy="-72" r="9" fill="#2C3B1A"/>
  </g>
    <g><ellipse cx="1527.6000000000001" cy="180" rx="23.400000000000002" ry="12.6" fill="#EEC9C2" opacity="0.85" transform="rotate(0 1527.6000000000001 180)"/><ellipse cx="1512.6000000000001" cy="205.98076211353316" rx="23.400000000000002" ry="12.6" fill="#EEC9C2" opacity="0.85" transform="rotate(60 1512.6000000000001 205.98076211353316)"/><ellipse cx="1482.6000000000001" cy="205.98076211353316" rx="23.400000000000002" ry="12.6" fill="#EEC9C2" opacity="0.85" transform="rotate(120 1482.6000000000001 205.98076211353316)"/><ellipse cx="1467.6000000000001" cy="180" rx="23.400000000000002" ry="12.6" fill="#EEC9C2" opacity="0.85" transform="rotate(180 1467.6000000000001 180)"/><ellipse cx="1482.6000000000001" cy="154.01923788646684" rx="23.400000000000002" ry="12.6" fill="#EEC9C2" opacity="0.85" transform="rotate(240 1482.6000000000001 154.01923788646684)"/><ellipse cx="1512.6000000000001" cy="154.01923788646684" rx="23.400000000000002" ry="12.6" fill="#EEC9C2" opacity="0.85" transform="rotate(300 1512.6000000000001 154.01923788646684)"/><circle cx="1497.6000000000001" cy="180" r="15" fill="#F5903A"/></g>
  </g>
  <rect width="1920" height="1000" fill="url(#vtravel)"/>
  <g text-anchor="middle" font-family="'Cormorant Garamond', Georgia, serif">
    <text x="960" y="494" font-size="96" fill="#F5F0E8" font-style="italic" opacity="0.96">Mérida, Yucatán</text>
    <text x="960" y="544" font-size="35" letter-spacing="6" fill="#F5F0E8" font-family="'Jost', sans-serif" opacity="0.8">PLACEHOLDER · REPLACE IN ADMIN</text>
  </g>
</svg>